{
	"asset":{
		"generator":"Khronos glTF Blender I/O v3.6.27",
		"version":"2.0"
	},
	"scene":0,
	"scenes":[
		{
			"name":"Scene",
			"nodes":[
				0
			]
		}
	],
	"nodes":[
		{
			"mesh":0,
			"name":"Landscape.005"
		}
	],
	"meshes":[
		{
			"name":"Landscape.005",
			"primitives":[
				{
					"attributes":{
						"POSITION":0,
						"NORMAL":1
					},
					"indices":2
				}
			]
		}
	],
	"accessors":[
		{
			"bufferView":0,
			"componentType":5126,
			"count":88790,
			"max":[
				10,
				7.1483378410339355,
				10
			],
			"min":[
				-10,
				-1,
				-10
			],
			"type":"VEC3"
		},
		{
			"bufferView":1,
			"componentType":5126,
			"count":88790,
			"type":"VEC3"
		},
		{
			"bufferView":2,
			"componentType":5125,
			"count":193548,
			"type":"SCALAR"
		}
	],
	"bufferViews":[
		{
			"buffer":0,
			"byteLength":1065480,
			"byteOffset":0,
			"target":34962
		},
		{
			"buffer":0,
			"byteLength":1065480,
			"byteOffset":1065480,
			"target":34962
		},
		{
			"buffer":0,
			"byteLength":774192,
			"byteOffset":2130960,
			"target":34963
		}
	],
	"buffers":[
		{
			"byteLength":2905152,
			"uri":"data:application/octet-stream;base64,"
		}
	]
}
