{
	"asset":{
		"generator":"Khronos glTF Blender I/O v3.6.27",
		"version":"2.0"
	},
	"scene":0,
	"scenes":[
		{
			"name":"Scene",
			"nodes":[
				0
			]
		}
	],
	"nodes":[
		{
			"mesh":0,
			"name":"Landscape.002"
		}
	],
	"meshes":[
		{
			"name":"Landscape.002",
			"primitives":[
				{
					"attributes":{
						"POSITION":0,
						"NORMAL":1
					},
					"indices":2
				}
			]
		}
	],
	"accessors":[
		{
			"bufferView":0,
			"componentType":5126,
			"count":64516,
			"max":[
				1,
				0.7073606252670288,
				1
			],
			"min":[
				-1,
				0.1729932278394699,
				-1
			],
			"type":"VEC3"
		},
		{
			"bufferView":1,
			"componentType":5126,
			"count":64516,
			"type":"VEC3"
		},
		{
			"bufferView":2,
			"componentType":5123,
			"count":96774,
			"type":"SCALAR"
		}
	],
	"bufferViews":[
		{
			"buffer":0,
			"byteLength":774192,
			"byteOffset":0,
			"target":34962
		},
		{
			"buffer":0,
			"byteLength":774192,
			"byteOffset":774192,
			"target":34962
		},
		{
			"buffer":0,
			"byteLength":193548,
			"byteOffset":1548384,
			"target":34963
		}
	],
	"buffers":[
		{
			"byteLength":1741932,
			"uri":"data:application/octet-stream;base64,"
		}
	]
}
