{
	"asset":{
		"generator":"Khronos glTF Blender I/O v3.6.27",
		"version":"2.0"
	},
	"extensionsUsed":[
		"KHR_materials_specular",
		"KHR_materials_ior"
	],
	"scene":0,
	"scenes":[
		{
			"name":"Scene",
			"nodes":[
				0
			]
		}
	],
	"nodes":[
		{
			"mesh":0,
			"name":"10093_Wembley_stadion_V3_Iteration0.001",
			"scale":[
				0.011223549023270607,
				0.011223549023270607,
				0.011223549023270607
			]
		}
	],
	"materials":[
		{
			"doubleSided":true,
			"extensions":{
				"KHR_materials_specular":{
					"specularColorFactor":[
						0,
						0,
						0
					]
				},
				"KHR_materials_ior":{
					"ior":1.4500000476837158
				}
			},
			"name":"10093_Wembley_stadion_V1_Diffuse",
			"pbrMetallicRoughness":{
				"baseColorTexture":{
					"index":0
				},
				"metallicFactor":0
			}
		}
	],
	"meshes":[
		{
			"name":"10093_Wembley_stadion_V3_Iteration0.001",
			"primitives":[
				{
					"attributes":{
						"POSITION":0,
						"NORMAL":1,
						"TEXCOORD_0":2
					},
					"indices":3,
					"material":0
				}
			]
		}
	],
	"textures":[
		{
			"sampler":0,
			"source":0
		}
	],
	"images":[
		{
			"bufferView":4,
			"mimeType":"image/jpeg",
			"name":"10093_Wembley_stadion_V1_Diffuse"
		}
	],
	"accessors":[
		{
			"bufferView":0,
			"componentType":5126,
			"count":24581,
			"max":[
				20607.091796875,
				14875.3193359375,
				15613.65625
			],
			"min":[
				-16774.55078125,
				-6.306600093841553,
				-37276.00390625
			],
			"type":"VEC3"
		},
		{
			"bufferView":1,
			"componentType":5126,
			"count":24581,
			"type":"VEC3"
		},
		{
			"bufferView":2,
			"componentType":5126,
			"count":24581,
			"type":"VEC2"
		},
		{
			"bufferView":3,
			"componentType":5123,
			"count":47070,
			"type":"SCALAR"
		}
	],
	"bufferViews":[
		{
			"buffer":0,
			"byteLength":294972,
			"byteOffset":0,
			"target":34962
		},
		{
			"buffer":0,
			"byteLength":294972,
			"byteOffset":294972,
			"target":34962
		},
		{
			"buffer":0,
			"byteLength":196648,
			"byteOffset":589944,
			"target":34962
		},
		{
			"buffer":0,
			"byteLength":94140,
			"byteOffset":786592,
			"target":34963
		},
		{
			"buffer":0,
			"byteLength":634025,
			"byteOffset":880732
		}
	],
	"samplers":[
		{
			"magFilter":9729,
			"minFilter":9987
		}
	],
	"buffers":[
		{
			"byteLength":1514760,
			"uri":"data:application/octet-stream;base64,"
		}
	]
}
